<svg xmlns="http://www.w3.org/2000/svg" viewBox="0 0 60 36" fill="none" stroke="currentColor" stroke-linecap="round" stroke-linejoin="round" aria-hidden="true">
  <g stroke-width="1.2">
    <path d="M20 18c-6-6-14-6-16-2l8 6c-6 2-10 6-8 10 4 2 10-2 12-8l6 4z" opacity=".75"/>
    <path d="M40 18c6-6 14-6 16-2l-8 6c6 2 10 6 8 10-4 2-10-2-12-8l-6 4z" opacity=".75"/>
    <path d="M20 18h20" opacity=".7"/>
    <path d="M24 14c4-2 8-2 12 0M24 22c4 2 8 2 12 0" opacity=".5"/>
    <circle cx="30" cy="18" r="2" fill="currentColor" stroke="none" opacity=".5"/>
  </g>
</svg>
