<svg xmlns="http://www.w3.org/2000/svg" viewBox="0 0 420 320" role="img" aria-labelledby="t d">
  <title id="t">パルミエの線画</title>
  <desc id="d">ハートのような形のパルミエを繊細な層で描いたイラストです。</desc>
  <defs>
    <linearGradient id="palmier" x1="0" y1="0" x2="1" y2="1">
      <stop offset="0" stop-color="#f8dca7"/>
      <stop offset=".65" stop-color="#d59a62"/>
      <stop offset="1" stop-color="#9b6143"/>
    </linearGradient>
  </defs>
  <ellipse cx="211" cy="250" rx="112" ry="29" fill="#4a2f27" opacity=".11"/>
  <path d="M211 235C142 190 91 154 99 106c5-31 36-50 68-39 22 8 35 27 44 47 9-20 22-39 44-47 32-11 63 8 68 39 8 48-43 84-112 129Z" fill="url(#palmier)" stroke="#6a473b" stroke-width="3" stroke-opacity=".42"/>
  <path d="M211 221c-47-35-80-64-76-99 2-20 20-31 39-24 19 7 29 26 37 47 8-21 18-40 37-47 19-7 37 4 39 24 4 35-29 64-76 99Z" fill="none" stroke="#fff6e6" stroke-width="7" opacity=".56" stroke-linecap="round"/>
  <path d="M211 201c-27-24-44-45-42-66 1-11 11-17 22-13 10 3 16 15 20 27 4-12 10-24 20-27 11-4 21 2 22 13 2 21-15 42-42 66Z" fill="none" stroke="#7a4b36" stroke-width="2.3" opacity=".32" stroke-linecap="round"/>
  <path d="M211 114v112" stroke="#704532" stroke-width="2.5" opacity=".36" stroke-linecap="round"/>
  <g opacity=".5" stroke="#f9d78e" stroke-width="5" stroke-linecap="round">
    <path d="M132 105c5-13 20-19 34-13"/>
    <path d="M290 105c-5-13-20-19-34-13"/>
  </g>
</svg>
