<svg xmlns="http://www.w3.org/2000/svg" viewBox="0 0 740 640" role="img" aria-labelledby="heroTitle heroDesc">
  <title id="heroTitle">焼きたてのパイの線画</title>
  <desc id="heroDesc">淡いピンクベージュの背景に置かれた、香ばしいパイと小さなラベルのイラストです。</desc>
  <defs>
    <radialGradient id="plate" cx="50%" cy="50%" r="60%">
      <stop offset="0" stop-color="#fffaf2"/>
      <stop offset="1" stop-color="#f1ded3"/>
    </radialGradient>
    <linearGradient id="pie" x1="0" y1="0" x2="1" y2="1">
      <stop offset="0" stop-color="#f8dfb5"/>
      <stop offset=".55" stop-color="#d99b61"/>
      <stop offset="1" stop-color="#8d5840"/>
    </linearGradient>
    <filter id="soft" x="-20%" y="-20%" width="140%" height="140%">
      <feGaussianBlur in="SourceAlpha" stdDeviation="12"/>
      <feOffset dx="0" dy="16" result="offset"/>
      <feComponentTransfer>
        <feFuncA type="linear" slope=".18"/>
      </feComponentTransfer>
      <feMerge>
        <feMergeNode/>
        <feMergeNode in="SourceGraphic"/>
      </feMerge>
    </filter>
  </defs>
  <g opacity=".8">
    <path d="M104 100C190 37 340 24 472 67c133 43 221 139 221 255 0 139-132 245-307 250-181 5-319-94-337-222C37 244 39 148 104 100Z" fill="#f8ece8"/>
    <path d="M83 455c86 72 226 115 369 81 141-33 235-129 220-216" fill="none" stroke="#d5a79e" stroke-width="1.5" stroke-dasharray="7 11" opacity=".56"/>
  </g>
  <g filter="url(#soft)">
    <ellipse cx="362" cy="376" rx="258" ry="96" fill="rgba(74,47,39,.12)"/>
    <ellipse cx="354" cy="335" rx="266" ry="178" fill="url(#plate)" stroke="#7e5a4b" stroke-opacity=".25" stroke-width="3"/>
    <ellipse cx="354" cy="335" rx="220" ry="139" fill="none" stroke="#d7b0a7" stroke-width="2" stroke-dasharray="6 10" opacity=".76"/>
    <path d="M161 333c8-106 88-185 193-188 102-3 193 72 211 175 14 80-69 124-207 124-135 0-203-39-197-111Z" fill="url(#pie)" stroke="#6a473b" stroke-opacity=".35" stroke-width="3"/>
    <path d="M172 319c41-45 105-70 186-70 78 0 139 24 188 71" fill="none" stroke="#fff2d8" stroke-width="13" stroke-linecap="round" opacity=".62"/>
    <path d="M182 347c51 35 108 52 171 52 70 0 135-20 192-60" fill="none" stroke="#794b38" stroke-width="3" stroke-linecap="round" opacity=".35"/>
    <path d="M207 279c31 22 65 33 103 33 39 0 78-13 116-39M230 228c24 20 55 31 92 31 44 0 82-15 114-45" fill="none" stroke="#fff7e8" stroke-width="6" stroke-linecap="round" opacity=".42"/>
    <path d="M263 174c-12 77-14 159-4 246M351 151c11 91 10 185-4 283M440 177c21 72 24 151 8 237" fill="none" stroke="#7b4e3c" stroke-width="2" stroke-linecap="round" opacity=".33"/>
    <path d="M187 366c25 18 63 32 113 39" fill="none" stroke="#f7c77e" stroke-width="7" stroke-linecap="round" opacity=".62"/>
    <path d="M470 210c22 21 41 50 51 82" fill="none" stroke="#fff6e5" stroke-width="7" stroke-linecap="round" opacity=".55"/>
  </g>
  <g transform="translate(515 90) rotate(7)">
    <path d="M0 0h144v76H0z" rx="16" fill="#fffaf2" stroke="#7e5a4b" stroke-opacity=".25"/>
    <path d="M16 20h112M16 52h112" stroke="#d5a79e" stroke-width="1"/>
    <text x="72" y="43" text-anchor="middle" fill="#6a473b" font-family="Cormorant Garamond, Times New Roman, serif" font-size="20" letter-spacing="2">fait main</text>
  </g>
  <g transform="translate(72 422) rotate(-8)">
    <path d="M0 18c38-22 88-22 126 0v62H0Z" fill="#fffaf2" stroke="#7e5a4b" stroke-opacity=".25"/>
    <path d="M14 41h98M22 61h82" stroke="#d5a79e" stroke-width="1.2"/>
    <text x="63" y="58" text-anchor="middle" fill="#4a2f27" font-family="Cormorant Garamond, Times New Roman, serif" font-size="17" letter-spacing="2">Maibara</text>
  </g>
</svg>
